<?xml version="1.0" standalone="no"?><!DOCTYPE svg PUBLIC "-//W3C//DTD SVG 1.1//EN" "http://www.w3.org/Graphics/SVG/1.1/DTD/svg11.dtd"><svg t="1583151596970" class="icon" viewBox="0 0 1024 1024" version="1.1" xmlns="http://www.w3.org/2000/svg" p-id="650" width="32" height="32" xmlns:xlink="http://www.w3.org/1999/xlink"><defs><style type="text/css"></style></defs><path d="M512 128c51.863704 0 102.115556 10.145185 149.428148 30.151111 45.700741 19.342222 86.755556 47.028148 122.026667 82.299259s62.957037 76.325926 82.299259 122.026667c20.100741 47.407407 30.245926 97.659259 30.245926 149.522963s-10.145185 102.115556-30.151111 149.428148c-19.342222 45.700741-47.028148 86.755556-82.299259 122.026667s-76.325926 62.957037-122.026667 82.299259c-47.407407 20.100741-97.659259 30.245926-149.522963 30.245926s-102.115556-10.145185-149.428148-30.151111c-45.700741-19.342222-86.755556-47.028148-122.026667-82.299259s-62.957037-76.325926-82.299259-122.026667c-20.100741-47.407407-30.245926-97.659259-30.245926-149.522963s10.145185-102.115556 30.151111-149.428148c19.342222-45.700741 47.028148-86.755556 82.299259-122.026667s76.325926-62.957037 122.026667-82.299259c47.407407-20.100741 97.659259-30.245926 149.522963-30.245926m0-42.666667C276.385185 85.333333 85.333333 276.385185 85.333333 512s191.051852 426.666667 426.666667 426.666667 426.666667-191.051852 426.666667-426.666667S747.614815 85.333333 512 85.333333z" p-id="651" fill="#247b14"></path><path d="M424.201481 714.903704c-7.111111 0-13.937778-3.508148-18.014814-9.955556L290.607407 522.619259c-6.257778-9.955556-3.318519-23.134815 6.637037-29.392592 9.955556-6.257778 23.134815-3.318519 29.392593 6.637037l115.579259 182.423703c6.257778 9.955556 3.318519 23.134815-6.637037 29.392593-3.508148 2.180741-7.49037 3.223704-11.377778 3.223704z" p-id="652" fill="#247b14"></path><path d="M424.201481 714.903704c-5.404444 0-10.903704-2.085926-15.075555-6.162963-8.343704-8.343704-8.343704-21.807407-0.094815-30.151111l325.30963-327.111111c8.343704-8.343704 21.807407-8.343704 30.151111-0.094815 8.343704 8.343704 8.343704 21.807407 0.094815 30.151111l-325.30963 327.111111a21.333333 21.333333 0 0 1-15.075556 6.257778z" p-id="653" fill="#247b14"></path></svg>