<?xml version="1.0" standalone="no"?><!DOCTYPE svg PUBLIC "-//W3C//DTD SVG 1.1//EN" "http://www.w3.org/Graphics/SVG/1.1/DTD/svg11.dtd"><svg t="1583151686277" class="icon" viewBox="0 0 1024 1024" version="1.1" xmlns="http://www.w3.org/2000/svg" p-id="950" xmlns:xlink="http://www.w3.org/1999/xlink" width="32" height="32"><defs><style type="text/css"></style></defs><path d="M512 128c51.863704 0 102.115556 10.145185 149.428148 30.151111 45.700741 19.342222 86.755556 47.028148 122.026667 82.299259s62.957037 76.325926 82.299259 122.026667c20.100741 47.407407 30.245926 97.659259 30.245926 149.522963s-10.145185 102.115556-30.151111 149.428148c-19.342222 45.700741-47.028148 86.755556-82.299259 122.026667s-76.325926 62.957037-122.026667 82.299259c-47.407407 20.100741-97.659259 30.245926-149.522963 30.245926s-102.115556-10.145185-149.428148-30.151111c-45.700741-19.342222-86.755556-47.028148-122.026667-82.299259s-62.957037-76.325926-82.299259-122.026667c-20.100741-47.407407-30.245926-97.659259-30.245926-149.522963s10.145185-102.115556 30.151111-149.428148c19.342222-45.700741 47.028148-86.755556 82.299259-122.026667s76.325926-62.957037 122.026667-82.299259c47.407407-20.100741 97.659259-30.245926 149.522963-30.245926m0-42.666667C276.385185 85.333333 85.333333 276.385185 85.333333 512s191.051852 426.666667 426.666667 426.666667 426.666667-191.051852 426.666667-426.666667S747.614815 85.333333 512 85.333333z" p-id="951" fill="#d81e06"></path><path d="M682.192593 703.525926c-5.499259 0-10.903704-2.085926-15.075556-6.257778l-340.385185-340.385185c-8.343704-8.343704-8.343704-21.807407 0-30.151111s21.807407-8.343704 30.151111 0l340.385185 340.385185c8.343704 8.343704 8.343704 21.807407 0 30.151111-4.171852 4.171852-9.576296 6.257778-15.075555 6.257778z" p-id="952" fill="#d81e06"></path><path d="M341.807407 703.525926c-5.499259 0-10.903704-2.085926-15.075555-6.257778-8.343704-8.343704-8.343704-21.807407 0-30.151111l340.385185-340.385185c8.343704-8.343704 21.807407-8.343704 30.151111 0s8.343704 21.807407 0 30.151111l-340.385185 340.385185c-4.171852 4.171852-9.576296 6.257778-15.075556 6.257778z" p-id="953" fill="#d81e06"></path></svg>