<?xml version="1.0" standalone="no"?><!DOCTYPE svg PUBLIC "-//W3C//DTD SVG 1.1//EN" "http://www.w3.org/Graphics/SVG/1.1/DTD/svg11.dtd"><svg class="icon" width="32px" height="32.00px" viewBox="0 0 1024 1024" version="1.1" xmlns="http://www.w3.org/2000/svg"><path fill="#000" d="M600.9 769.9H453.8c-7.4 0-13.3-6-13.3-13.3 0-7.3 5.9-13.3 13.3-13.3h133.8V269.5h-226c-7.4 0-13.3-6-13.3-13.3 0-7.3 5.9-13.3 13.3-13.3H601c7.4 0 13.3 6 13.3 13.3v500.4c-0.1 7.3-6 13.3-13.4 13.3zM209.3 365.7H66.6c-7.4 0-13.3-6-13.3-13.3s5.9-13.3 13.3-13.3H196V228c0-7.3 5.9-13.3 13.3-13.3s13.3 6 13.3 13.3v124.4c0 7.3-5.9 13.3-13.3 13.3zM231.1 769.9H100.6c-7.4 0-13.3-6-13.3-13.3V483.7c0-7.3 5.9-13.3 13.3-13.3s13.3 6 13.3 13.3v259.6h117.2c7.4 0 13.3 6 13.3 13.3 0 7.3-6 13.3-13.3 13.3zM1010.7 769.9h-102c-7.4 0-13.3-6-13.3-13.3 0-7.3 5.9-13.3 13.3-13.3h88.6l-1.3-184c-0.1-7.3 5.9-13.3 13.2-13.4h0.1c7.3 0 13.2 5.9 13.3 13.2l1.4 197.4c0 3.5-1.4 7-3.9 9.5s-5.9 3.9-9.4 3.9zM695.1 769.9h-94.2c-7.4 0-13.3-6-13.3-13.3V346.8c0-7.3 5.9-13.3 13.3-13.3h285.5c7.4 0 13.3 6 13.3 13.3 0 7.3-5.9 13.3-13.3 13.3H614.2v383.2h80.9c7.4 0 13.3 6 13.3 13.3 0 7.3-5.9 13.3-13.3 13.3zM1007.8 570.7h-211c-7.4 0-13.3-6-13.3-13.3V410c0-7.3 5.9-13.3 13.3-13.3h103l-24.9-43.2c-3.7-6.4-1.5-14.5 4.9-18.2 6.4-3.7 14.5-1.5 18.2 4.9l121.4 210.6c2.4 4.1 2.4 9.2 0 13.3-2.5 4.1-6.9 6.6-11.6 6.6z m-197.7-26.6h174.7l-69.6-120.8h-105v120.8zM345.2 875.2c-65.4 0-118.6-53.2-118.6-118.6S279.8 638 345.2 638c65.4 0 118.6 53.2 118.6 118.6s-53.2 118.6-118.6 118.6z m0-210.6c-50.7 0-92 41.3-92 92s41.3 92 92 92 92-41.3 92-92-41.3-92-92-92zM800.4 875.2c-65.4 0-118.6-53.2-118.6-118.6S735 638 800.4 638c65.4 0 118.6 53.2 118.6 118.6s-53.2 118.6-118.6 118.6z m0-210.6c-50.7 0-92 41.3-92 92s41.3 92 92 92 92-41.3 92-92-41.3-92-92-92zM192.8 519.7C86.5 519.7 0 433.2 0 326.9s86.5-192.8 192.8-192.8 192.8 86.5 192.8 192.8-86.4 192.8-192.8 192.8z m0-359c-91.7 0-166.2 74.6-166.2 166.2s74.6 166.2 166.2 166.2S359 418.5 359 326.9s-74.5-166.2-166.2-166.2z" /></svg>