<?xml version="1.0" standalone="no"?><!DOCTYPE svg PUBLIC "-//W3C//DTD SVG 1.1//EN" "http://www.w3.org/Graphics/SVG/1.1/DTD/svg11.dtd"><svg class="icon" width="32px" height="32.00px" viewBox="0 0 1024 1024" version="1.1" xmlns="http://www.w3.org/2000/svg"><path fill="#000" d="M512 1024C229.226146 1024 0 794.773854 0 512S229.226146 0 512 0s512 229.226146 512 512-229.226146 512-512 512z m0-24.97561c268.987317 0 487.02439-218.037073 487.02439-487.02439S780.987317 24.97561 512 24.97561 24.97561 243.012683 24.97561 512s218.037073 487.02439 487.02439 487.02439zM329.353366 302.467122c1.24878-0.936585 2.747317-1.698341 4.49561-2.172878l267.48878-73.703024a49.95122 49.95122 0 0 1 60.565854 32.093658L675.84 299.707317H674.341463c41.18478 0 74.926829 33.05522 74.92683 74.926829v262.243903c0 41.87161-33.742049 74.926829-74.92683 74.926829H349.658537c-41.18478 0-74.926829-33.05522-74.92683-74.926829V374.634146a74.677073 74.677073 0 0 1 54.621659-72.167024zM649.465756 299.707317l-11.201561-32.99278a24.97561 24.97561 0 0 0-30.282927-16.04683L429.992585 299.707317H407.601951h241.851317zM349.658537 324.682927c-27.448195 0-49.95122 21.978537-49.95122 49.951219v262.243903c0 27.972683 22.503024 49.95122 49.95122 49.951219h324.682926c27.448195 0 49.95122-21.978537 49.95122-49.951219V374.634146c0-27.972683-22.503024-49.95122-49.95122-49.951219H349.658537z m374.634146 117.060683v24.97561h-100.189659a12.487805 12.487805 0 0 0-12.487804 12.487804v70.743415a12.487805 12.487805 0 0 0 12.487804 12.487805H724.292683v24.97561h-100.189659a37.463415 37.463415 0 0 1-37.463414-37.463415v-70.743415a37.463415 37.463415 0 0 1 37.463414-37.463414H724.292683z"  /></svg>