<?xml version="1.0" standalone="no"?><!DOCTYPE svg PUBLIC "-//W3C//DTD SVG 1.1//EN" "http://www.w3.org/Graphics/SVG/1.1/DTD/svg11.dtd"><svg t="1584802218818" class="icon" viewBox="0 0 1185 1024" version="1.1" xmlns="http://www.w3.org/2000/svg" p-id="694" xmlns:xlink="http://www.w3.org/1999/xlink" width="37.03125" height="32"><defs><style type="text/css"></style></defs><path d="M0 512c0-67.025455 13.312-134.050909 38.958545-195.956364A513.629091 513.629091 0 0 1 149.969455 149.969455 513.582545 513.582545 0 0 1 316.043636 38.958545C377.949091 13.358545 444.974545 0 512 0s134.050909 13.312 195.956364 38.958545c61.905455 25.646545 118.690909 63.627636 166.074181 111.01091a513.489455 513.489455 0 0 1 111.01091 166.074181C1010.641455 377.949091 1024 444.974545 1024 512s-13.312 134.050909-38.958545 195.956364a513.442909 513.442909 0 0 1-111.01091 166.074181 513.489455 513.489455 0 0 1-166.074181 111.01091c-61.905455 25.6-128.930909 38.958545-195.956364 38.958545s-134.050909-13.312-195.956364-38.958545a513.536 513.536 0 0 1-166.074181-111.01091A513.536 513.536 0 0 1 38.958545 707.956364 513.629091 513.629091 0 0 1 0 512z m710.190545-123.857455c0-173.428364-123.857455-198.190545-198.190545-198.190545s-198.190545 24.762182-198.190545 198.190545c0 156.858182 107.333818 264.238545 107.333818 264.238546l8.285091 8.285091v16.477091c0 24.808727-16.523636 74.333091-82.571637 82.618182a224.442182 224.442182 0 0 0-132.142545 66.048C289.047273 900.142545 396.381091 949.666909 512 949.666909c115.618909 0 222.952727-49.524364 297.285818-123.857454-24.762182-41.285818-74.333091-66.094545-132.142545-66.094546-66.048-8.238545-82.571636-57.762909-82.571637-82.571636v-8.238546l8.285091-8.238545c0-8.285091 107.333818-115.618909 107.333818-272.523637z" fill="#e6e6e6" p-id="695"></path></svg>