<?xml version="1.0" standalone="no"?><!DOCTYPE svg PUBLIC "-//W3C//DTD SVG 1.1//EN" "http://www.w3.org/Graphics/SVG/1.1/DTD/svg11.dtd"><svg t="1585663297847" class="icon" viewBox="0 0 1024 1024" version="1.1" xmlns="http://www.w3.org/2000/svg" p-id="8757" width="16" height="16" xmlns:xlink="http://www.w3.org/1999/xlink"><defs><style type="text/css"></style></defs><path d="M512.2 111.9c47 0 91.2 18.3 124.4 51.5s51.5 77.4 51.5 124.4-18.3 91.2-51.5 124.4-77.4 51.5-124.4 51.5-91.2-18.3-124.4-51.5-51.5-77.4-51.5-124.4 18.3-91.2 51.5-124.4c33.2-33.1 77.4-51.5 124.4-51.5m0.4 497.8c62.8 0 125 9.9 184.7 29.4 59.7 19.5 115.7 48.2 166.5 85.2l1 0.7 1.1 0.7c0.6 0.4 2.2 1.7 3.4 2.6 1 0.8 2.2 1.8 3.5 2.8l0.2 0.2 0.2 0.2c2.7 2 8.9 7.9 13.1 12.3 12 13.5 25.9 35.8 25.9 66.8 0 13.4-2.6 26.4-7.7 38.8-5.1 12.4-12.5 23.4-22 32.9s-20.5 16.8-32.9 22c-12.4 5.1-25.4 7.7-38.8 7.7H213.6c-13.4 0-26.4-2.6-38.8-7.7-12.4-5.1-23.4-12.5-32.9-22s-16.8-20.5-22-32.9c-5.1-12.3-7.7-25.3-7.7-38.7 0.1-24.8 9.2-48.5 25.8-66.8 4.2-4.3 10.4-10.2 13-12.2l0.3-0.2 0.3-0.2c1.3-1 2.4-1.9 3.5-2.8 1.2-1 2.8-2.3 3.4-2.6l1-0.7 1-0.7c50.2-36.5 105.2-64.9 163.6-84.3 60.5-20.1 123.8-30.3 188.1-30.3h0.4m-0.4-546c-123.7 0-224 100.3-224 224s100.3 224 224 224 224-100.3 224-224-100.3-224-224-224z m0.4 497.8h-0.4c-142.1 0-273.2 46.2-379.9 123.8-3.6 2.3-6.7 5.1-10.1 7.7-7.8 5.9-19.2 17.8-19.2 17.8-24.8 27.2-38.7 62.7-38.8 99.5 0 39.6 15.7 77.6 43.7 105.6 28 28 66 43.7 105.6 43.7h597.3c39.6 0 77.6-15.7 105.6-43.7s43.7-66 43.7-105.6c0-38.4-14.9-73.1-38.8-99.5 0 0-11.4-11.9-19.3-17.8-3.3-2.6-6.5-5.3-10.1-7.7-110-80.4-242.9-123.8-379.3-123.8z" fill="#585859" p-id="8758"></path></svg>