<?xml version="1.0" standalone="no"?><!DOCTYPE svg PUBLIC "-//W3C//DTD SVG 1.1//EN" "http://www.w3.org/Graphics/SVG/1.1/DTD/svg11.dtd"><svg t="1583151137120" class="icon" viewBox="0 0 1024 1024" version="1.1" xmlns="http://www.w3.org/2000/svg" p-id="1553" xmlns:xlink="http://www.w3.org/1999/xlink" width="16" height="16"><defs><style type="text/css"></style></defs><path d="M870.25664 492.09344c-2.96192 200.72128-160.61248 357.59744-359.008 357.22496-198.68608-0.37312-357.60896-157.06944-357.50464-358.1952 0.10368-199.29856 157.1968-357.80544 357.9424-357.88352 201.27936-0.07808 356.3616 159.80672 358.57024 358.85376zM489.08352 557.26272c-3.91168-3.24224-6.06272-4.90752-8.08384-6.71808-26.976-24.16832-53.83744-48.46592-80.93568-72.49536-13.53088-11.99808-30.72704-11.42656-41.9296 0.83008-10.81152 11.82912-10.1088 29.27104 2.79168 41.00224a10157.80864 10157.80864 0 0 0 108.12928 96.93952c13.1456 11.616 28.68416 10.8832 41.06432-1.80288 58.38208-59.82464 116.53248-119.87648 174.74752-179.86368 8.7808-9.04832 9.51168-19.82976 5.60064-31.00672-3.89184-11.12128-12.9728-16.03776-24.09216-17.10272-10.96128-1.0496-19.18528 4.5248-26.49344 12.09216-47.9072 49.6064-95.90016 99.13024-143.79072 148.75328-2.61952 2.71424-4.57024 6.07488-7.008 9.37216z" p-id="1554" fill="#ffffff"></path></svg>